<svg width="36" height="35" viewBox="0 0 36 35" fill="none" xmlns="http://www.w3.org/2000/svg">
<g clip-path="url(#clip0_5707_23620)">
<path d="M31.125 21.875C31.125 22.6485 30.8177 23.3904 30.2707 23.9374C29.7237 24.4844 28.9819 24.7917 28.2083 24.7917H10.7083L4.875 30.625V7.29167C4.875 6.51812 5.18229 5.77625 5.72927 5.22927C6.27625 4.68229 7.01812 4.375 7.79167 4.375H28.2083C28.9819 4.375 29.7237 4.68229 30.2707 5.22927C30.8177 5.77625 31.125 6.51812 31.125 7.29167V21.875Z" stroke="#171717" stroke-width="2.91667" stroke-linecap="round" stroke-linejoin="round"/>
</g>
<rect x="18" width="17" height="17" rx="8.5" fill="#665CD1"/>
<path d="M22.5704 12.0918C22.1896 12.0918 21.8088 12.0136 21.428 11.8572C21.0472 11.7008 20.731 11.4934 20.4794 11.235L20.8262 10.5108C21.0778 10.7624 21.3532 10.9528 21.6524 11.082C21.9584 11.2112 22.2678 11.2758 22.5806 11.2758C23.247 11.2758 23.7604 11.0378 24.1208 10.5618C24.4812 10.079 24.6614 9.365 24.6614 8.4198V7.512H24.7634C24.7226 7.886 24.6036 8.2124 24.4064 8.4912C24.216 8.7632 23.9746 8.974 23.6822 9.1236C23.3898 9.2732 23.0566 9.348 22.6826 9.348C22.2542 9.348 21.8734 9.2494 21.5402 9.0522C21.207 8.855 20.9452 8.5864 20.7548 8.2464C20.5644 7.8996 20.4692 7.5052 20.4692 7.0632C20.4692 6.6076 20.5678 6.203 20.765 5.8494C20.969 5.4958 21.2478 5.2204 21.6014 5.0232C21.955 4.8192 22.363 4.7172 22.8254 4.7172C23.7094 4.7172 24.3894 5.0266 24.8654 5.6454C25.3414 6.2574 25.5794 7.121 25.5794 8.2362C25.5794 9.059 25.457 9.7594 25.2122 10.3374C24.9742 10.9086 24.6308 11.3438 24.182 11.643C23.7332 11.9422 23.196 12.0918 22.5704 12.0918ZM22.8866 8.5626C23.1858 8.5626 23.4476 8.498 23.672 8.3688C23.9032 8.2396 24.0834 8.0594 24.2126 7.8282C24.3418 7.597 24.4064 7.3318 24.4064 7.0326C24.4064 6.7266 24.3418 6.4614 24.2126 6.237C24.0834 6.0058 23.9032 5.8256 23.672 5.6964C23.4476 5.5604 23.1858 5.4924 22.8866 5.4924C22.5874 5.4924 22.3222 5.5604 22.091 5.6964C21.8666 5.8256 21.6898 6.0058 21.5606 6.237C21.4382 6.4614 21.377 6.7266 21.377 7.0326C21.377 7.3318 21.4382 7.597 21.5606 7.8282C21.6898 8.0594 21.8666 8.2396 22.091 8.3688C22.3222 8.498 22.5874 8.5626 22.8866 8.5626ZM28.819 11.6124V9.4194H26.6566V8.7258H28.819V6.5838H29.533V8.7258H31.6954V9.4194H29.533V11.6124H28.819Z" fill="#FEFEFE"/>
<defs>
<clipPath id="clip0_5707_23620">
<rect width="35" height="35" fill="white" transform="translate(0.5)"/>
</clipPath>
</defs>
</svg>
