<svg width="36" height="35" viewBox="0 0 36 35" fill="none" xmlns="http://www.w3.org/2000/svg">
<path d="M4.875 13.125V3.64581H11.4375M4.875 13.125V29.1666C4.875 29.9402 5.18229 30.6821 5.72927 31.229C6.27625 31.776 7.01812 32.0833 7.79167 32.0833H28.2083C28.9819 32.0833 29.7237 31.776 30.2707 31.229C30.8177 30.6821 31.125 29.9402 31.125 29.1666V13.125M4.875 13.125H11.4375M31.125 13.125V3.64581H24.5625M31.125 13.125H24.5625M18 3.64581V13.125M18 3.64581H11.4375M18 3.64581H24.5625M18 13.125H11.4375M18 13.125H24.5625M11.4375 3.64581V13.125M24.5625 3.64581V13.125" stroke="#171717" stroke-width="2.91667" stroke-linecap="round" stroke-linejoin="round"/>
<path d="M13.625 32.0833V21.875H22.375V32.0833" stroke="#171717" stroke-width="2.91667" stroke-linecap="round" stroke-linejoin="round"/>
</svg>
