<svg width="36" height="35" viewBox="0 0 36 35" fill="none" xmlns="http://www.w3.org/2000/svg">
<g clip-path="url(#clip0_5707_23614)">
<path d="M30.8919 6.72289C30.1471 5.97769 29.2627 5.38654 28.2893 4.98322C27.3159 4.5799 26.2726 4.37231 25.219 4.37231C24.1654 4.37231 23.1221 4.5799 22.1487 4.98322C21.1753 5.38654 20.2909 5.97769 19.5461 6.72289L18.0003 8.26873L16.4544 6.72289C14.9499 5.21834 12.9093 4.37309 10.7815 4.37309C8.65375 4.37309 6.61314 5.21834 5.10859 6.72289C3.60404 8.22744 2.75879 10.2681 2.75879 12.3958C2.75879 14.5236 3.60404 16.5642 5.10859 18.0687L6.65442 19.6146L18.0003 30.9604L29.3461 19.6146L30.8919 18.0687C31.6371 17.3239 32.2283 16.4395 32.6316 15.4661C33.0349 14.4927 33.2425 13.4494 33.2425 12.3958C33.2425 11.3422 33.0349 10.2989 32.6316 9.3255C32.2283 8.35212 31.6371 7.46775 30.8919 6.72289V6.72289Z" stroke="#171717" stroke-width="2.91667" stroke-linecap="round" stroke-linejoin="round"/>
</g>
<defs>
<clipPath id="clip0_5707_23614">
<rect width="35" height="35" fill="white" transform="translate(0.5)"/>
</clipPath>
</defs>
</svg>
